#!OML:ASF E:\Steps\Project 1\Capture day 1\Session 2\Subject.ASF
:FULLY-SPECIFIED
:DEGREES
393
root 13.0433 15.9784 12.4453 29.8721 -165.57 358.655
lowerback -10.0645 -2.67137 -6.62645
upperback 0.767938 -2.77357 -2.53458
thorax 6.65666 -1.62014 0.601915
lowerneck 0.824975 0.392755 -3.66409
upperneck 8.87284 -0.304546 6.64854
head 2.73031 -0.246173 2.81267
rclavicle -5.1684e-014 -6.36111e-014
rhumerus -25.3844 -9.34958 -90.5645
rradius 31.2383
rwrist -4.1317
rhand -9.99837 -51.1004
rfingers 7.12502
rthumb 15.9852 -80.4609
lclavicle -5.1684e-014 -6.36111e-014
lhumerus -27.0106 2.24762 78.0102
lradius 15.1983
lwrist -10.5574
lhand -25.2309 -15.7283
lfingers 7.12502
lthumb 1.28854 14.2476
rfemur -51.8305 16.854 10.3711
rtibia 32.1911
rfoot -19.7486 -7.13695
rtoes -46.994
lfemur -51.9012 -17.5455 -4.14384
ltibia 38.5702
lfoot -16.4732 8.69643
ltoes -39.1127
394
root 13.0055 15.9763 12.458 29.9534 -165.742 358.715
lowerback -10.1078 -2.68018 -6.55428
upperback 0.830317 -2.78479 -2.52147
thorax 6.74574 -1.62486 0.569277
lowerneck 0.693759 0.379379 -3.62501
upperneck 8.87364 -0.317189 6.65394
head 2.75534 -0.247358 2.80826
rclavicle 1.27222e-014 6.20208e-014
rhumerus -25.1873 -9.69915 -90.4367
rradius 30.8189
rwrist -3.66317
rhand -10.0722 -50.7661
rfingers 7.12502
rthumb 15.9141 -80.1322
lclavicle 1.27222e-014 6.20208e-014
lhumerus -26.7562 1.96289 78.1161
lradius 15.1928
lwrist -10.5845
lhand -24.7564 -15.0422
lfingers 7.12502
lthumb 1.74686 14.9304
rfemur -52.4004 16.9244 10.1554
rtibia 33.0274
rfoot -20.0985 -7.19396
rtoes -47.3083
lfemur -52.0227 -17.3003 -4.34748
ltibia 38.729
lfoot -16.3006 8.71698
ltoes -39.464
395
root 12.9651 15.9726 12.4709 30.0533 -165.972 358.814
lowerback -10.0485 -2.66416 -6.37527
upperback 0.780432 -2.79277 -2.54237
thorax 6.64873 -1.61978 0.451804
lowerneck 0.563782 0.370477 -3.58974
upperneck 8.88929 -0.324521 6.64746
head 2.78478 -0.246632 2.80082
rclavicle 3.18055e-015 -5.40694e-014
rhumerus -25.1785 -10.2015 -90.3056
rradius 30.4042
rwrist -3.13626
rhand -10.4163 -50.4142
rfingers 7.12502
rthumb 15.5827 -79.8065
lclavicle 3.18055e-015 -5.40694e-014
lhumerus -26.7339 1.21189 78.3249
lradius 15.3189
lwrist -10.2821
lhand -24.5129 -14.3303
lfingers 7.12502
lthumb 1.982 15.6402
rfemur -52.912 17.1921 9.86378
rtibia 33.536
rfoot -20.5341 -7.48109
rtoes -47.3763
lfemur -52.0898 -16.9425 -4.61069
ltibia 38.7882
lfoot -16.1865 8.86451
ltoes -39.7351
396
root 12.9259 15.9683 12.4785 30.0238 -166.133 358.89
lowerback -9.88404 -2.69396 -6.30807
upperback 0.736764 -2.85716 -2.47411
thorax 6.51263 -1.64536 0.48612
lowerneck 0.489097 0.386123 -3.64809
upperneck 8.91379 -0.299607 6.63848
head 2.80581 -0.234472 2.81027
rclavicle -3.18055e-014 -5.725e-014
rhumerus -25.2855 -10.3821 -90.1188
rradius 30.0819
rwrist -2.75853
rhand -10.9135 -50.4846
rfingers 7.12502
rthumb 15.1038 -79.9136
lclavicle -3.18055e-014 -5.725e-014
lhumerus -26.8986 0.848792 78.5111
lradius 15.4839
lwrist -10.4543
lhand -24.5132 -13.7549
lfingers 7.12502
lthumb 1.98174 16.2156
rfemur -52.9363 17.3414 9.70057
rtibia 33.5259
rfoot -21.6485 -7.25383
rtoes -44.8082
lfemur -51.9418 -16.7505 -4.89008
ltibia 38.7236
lfoot -16.2506 9.00544
ltoes -39.555
397
root 12.8827 15.962 12.4859 30.089 -166.38 358.857
lowerback -9.93704 -2.68489 -6.33472
upperback 0.736052 -2.83852 -2.49866
thorax 6.5409 -1.63828 0.475333
lowerneck 0.492348 0.382022 -3.66504
upperneck 8.91135 -0.306372 6.65022
head 2.80505 -0.23842 2.81726
rclavicle 1.43125e-014 -9.54166e-015
rhumerus -25.2975 -10.5804 -90.0052
rradius 29.7894
rwrist -2.52997
rhand -11.0012 -50.7516
rfingers 7.12502
rthumb 15.0193 -80.1868
lclavicle 1.43125e-014 -9.54166e-015
lhumerus -26.9011 0.800654 78.5179
lradius 15.507
lwrist -10.9458
lhand -24.3654 -13.7686
lfingers 7.12502
lthumb 2.12451 16.2006
rfemur -52.94 17.3557 9.43052
rtibia 33.4084
rfoot -20.8044 -7.33981
rtoes -46.4562
lfemur -51.8492 -16.7151 -5.22819
ltibia 38.6642
lfoot -16.4501 9.22781
ltoes -38.8384
398
root 12.8383 15.9594 12.4957 30.1632 -166.681 358.837
lowerback -9.86868 -2.62574 -6.33172
upperback 0.653906 -2.77324 -2.5837
thorax 6.40583 -1.60436 0.40136
lowerneck 0.49058 0.366751 -3.63493
upperneck 8.90678 -0.329005 6.65997
head 2.80505 -0.248764 2.81445
rclavicle 2.38542e-015 -6.20208e-014
rhumerus -25.4293 -11.1833 -89.8722
rradius 29.488
rwrist -2.03894
rhand -11.2976 -50.3358
rfingers 7.12502
rthumb 14.7338 -79.7921
lclavicle 2.38542e-015 -6.20208e-014
lhumerus -26.8888 0.842148 78.4075
lradius 15.352
lwrist -11.4744
lhand -24.2922 -14.1922
lfingers 7.12502
lthumb 2.19518 15.7763
rfemur -53.0054 17.495 9.0591
rtibia 33.2831
rfoot -21.0538 -7.25744
rtoes -45.4809
lfemur -51.7115 -16.576 -5.58157
ltibia 38.5003
lfoot -16.6077 9.42907
ltoes -37.9456
399
root 12.7951 15.9612 12.5062 30.2001 -166.877 358.911
lowerback -9.664 -2.68246 -6.27591
upperback 0.542277 -2.88086 -2.47488
thorax 6.18004 -1.64941 0.482589
lowerneck 0.427321 0.415177 -3.89257
upperneck 8.92611 -0.256304 6.69
head 2.82143 -0.217904 2.87552
rclavicle -2.06736e-014 7.95139e-015
rhumerus -25.5585 -11.3481 -89.6054
rradius 29.207
rwrist -1.66001
rhand -11.0626 -50.3777
rfingers 7.12502
rthumb 14.9602 -79.8174
lclavicle -2.06736e-014 7.95139e-015
lhumerus -27.0682 0.869178 78.5702
lradius 15.3315
lwrist -11.4634
lhand -24.524 -14.7265
lfingers 7.12502
lthumb 1.97126 15.2441
rfemur -53.1173 17.7249 8.72033
rtibia 33.2336
rfoot -21.2892 -7.17199
rtoes -44.0781
lfemur -51.5269 -16.3044 -5.84635
ltibia 38.1731
lfoot -16.5162 9.57736
ltoes -37.995
400
root 12.7511 15.9606 12.5156 30.2803 -167.05 358.962
lowerback -9.6993 -2.63242 -6.24865
upperback 0.523137 -2.81465 -2.44577
thorax 6.17591 -1.61524 0.507578
lowerneck 0.538691 0.393464 -3.92046
upperneck 8.92358 -0.294825 6.71919
head 2.80282 -0.240884 2.88885
rclavicle 1.59028e-015 -7.95139e-014
rhumerus -25.5194 -11.6551 -89.3757
rradius 28.7687
rwrist -1.6217
rhand -10.4678 -50.99
rfingers 7.12502
rthumb 15.5332 -80.3861
lclavicle 1.59028e-015 -7.95139e-014
lhumerus -27.0403 0.398277 78.8056
lradius 15.3603
lwrist -11.1871
lhand -24.5989 -14.9787
lfingers 7.12502
lthumb 1.89894 14.9926
rfemur -53.2993 17.7602 8.48458
rtibia 33.2891
rfoot -21.1526 -7.09439
rtoes -43.9157
lfemur -51.4836 -16.1438 -6.0706
ltibia 37.9732
lfoot -16.3467 9.78556
ltoes -38.8434
401
root 12.7075 15.9599 12.5218 30.2538 -167.225 358.985
lowerback -9.71539 -2.58283 -6.31027
upperback 0.614197 -2.73228 -2.42268
thorax 6.28144 -1.57894 0.574822
lowerneck 0.613278 0.363339 -3.85849
upperneck 8.92934 -0.343947 6.72261
head 2.79346 -0.266108 2.87675
rclavicle -3.73715e-014 -1.27222e-014
rhumerus -25.3008 -12.0682 -89.1888
rradius 28.194
rwrist -1.5109
rhand -10.6086 -51.2779
rfingers 7.12502
rthumb 15.3975 -80.6845
lclavicle -3.73715e-014 -1.27222e-014
lhumerus -26.82 0.279766 78.9244
lradius 15.3954
lwrist -11.0976
lhand -24.4678 -14.5045
lfingers 7.12502
lthumb 2.02561 15.4657
rfemur -53.3237 17.6776 8.39754
rtibia 33.3415
rfoot -21.0195 -7.0866
rtoes -44.5164
lfemur -51.3371 -16.1184 -6.30297
ltibia 37.8554
lfoot -16.2895 9.8651
ltoes -38.961
402
root 12.6639 15.9627 12.5276 30.1715 -167.375 359.018
lowerback -9.68805 -2.53551 -6.35041
upperback 0.751092 -2.6555 -2.42044
thorax 6.40931 -1.54565 0.607835
lowerneck 0.646309 0.349035 -3.77669
upperneck 8.92194 -0.367365 6.71873
head 2.7855 -0.276568 2.85915
rclavicle 1.43125e-014 7.95139e-014
rhumerus -25.1773 -12.7969 -89.0105
rradius 27.9118
rwrist -1.09019
rhand -10.787 -51.4731
rfingers 7.12502
rthumb 15.2256 -80.8929
lclavicle 1.43125e-014 7.95139e-014
lhumerus -26.6649 -0.129647 79.1036
lradius 15.6649
lwrist -10.6119
lhand -24.4489 -13.9776
lfingers 7.12502
lthumb 2.04381 15.9923
rfemur -53.3235 17.7522 8.23327
rtibia 33.4246
rfoot -21.0222 -7.16897
rtoes -44.9592
lfemur -51.1284 -16.0701 -6.55285
ltibia 37.7411
lfoot -16.2641 9.79999
ltoes -38.8153
403
root 12.6208 15.9695 12.5381 30.146 -167.497 359.032
lowerback -9.60727 -2.53669 -6.36439
upperback 0.838418 -2.65571 -2.41619
thorax 6.45751 -1.54774 0.620582
lowerneck 0.640583 0.358321 -3.76476
upperneck 8.91412 -0.354517 6.71826
head 2.78302 -0.269729 2.85692
rclavicle -1.59028e-015 -5.725e-014
rhumerus -25.2479 -13.3437 -88.8842
rradius 27.9112
rwrist -0.701797
rhand -11.2312 -51.324
rfingers 7.12502
rthumb 14.7978 -80.7757
lclavicle -1.59028e-015 -5.725e-014
lhumerus -26.4995 -0.439163 79.2364
lradius 15.8494
lwrist -10.1145
lhand -24.4738 -13.7585
lfingers 7.12502
lthumb 2.01979 16.2117
rfemur -53.3899 17.9863 7.88156
rtibia 33.4102
rfoot -20.4904 -7.48899
rtoes -45.8009
lfemur -51.1192 -16.0208 -6.77534
ltibia 37.7274
lfoot -16.102 9.84939
ltoes -39.5606
